<svg width="12" height="12" viewBox="0 0 12 12" fill="none" xmlns="http://www.w3.org/2000/svg">
<g clip-path="url(#clip0_629_24739)">
<path d="M4.18052 0.39496C2.98153 0.8109 1.94753 1.60037 1.23039 2.6474C0.513245 3.69443 0.150763 4.94385 0.196186 6.21212C0.241608 7.48039 0.692541 8.70067 1.48275 9.69371C2.27296 10.6868 3.36079 11.4002 4.58646 11.7293C5.58014 11.9857 6.62122 11.997 7.62021 11.7621C8.5252 11.5589 9.36188 11.1241 10.0483 10.5003C10.7628 9.83123 11.2814 8.9801 11.5483 8.0384C11.8385 7.01434 11.8901 5.9374 11.6993 4.89027H6.11927V7.20496H9.35083C9.28625 7.57414 9.14785 7.92649 8.94391 8.24093C8.73998 8.55537 8.4747 8.82543 8.16396 9.03496C7.76935 9.29599 7.32452 9.47162 6.85802 9.55059C6.39016 9.63758 5.91026 9.63758 5.4424 9.55059C4.9682 9.45255 4.51961 9.25683 4.12521 8.9759C3.4916 8.52739 3.01584 7.8902 2.76583 7.15527C2.5116 6.40658 2.5116 5.5949 2.76583 4.84621C2.9438 4.32141 3.23799 3.84359 3.62646 3.4484C4.07101 2.98785 4.63383 2.65865 5.25317 2.49691C5.8725 2.33517 6.52442 2.34715 7.1374 2.53152C7.61624 2.67852 8.05413 2.93534 8.41615 3.28152C8.78052 2.91902 9.14427 2.55559 9.5074 2.19121C9.6949 1.99527 9.89927 1.80871 10.084 1.60809C9.53136 1.09384 8.88272 0.693701 8.17521 0.430585C6.88681 -0.0372367 5.47706 -0.0498089 4.18052 0.39496Z" fill="white"/>
<path d="M4.18035 0.394439C5.47679 -0.0506322 6.88653 -0.0383908 8.17504 0.429127C8.88268 0.69403 9.53102 1.0961 10.0828 1.61225C9.89535 1.81288 9.69754 2.00038 9.50629 2.19538C9.14254 2.5585 8.7791 2.92038 8.41597 3.281C8.05396 2.93482 7.61607 2.67799 7.13722 2.531C6.52445 2.34598 5.87256 2.33331 5.25306 2.49439C4.63356 2.65546 4.07039 2.98406 3.62535 3.44413C3.23688 3.83932 2.94269 4.31714 2.76473 4.84194L0.821289 3.33725C1.51692 1.95778 2.72137 0.902587 4.18035 0.394439Z" fill="#E33629"/>
<path d="M0.3057 4.82852C0.410158 4.31082 0.583579 3.80948 0.821325 3.33789L2.76476 4.84633C2.51053 5.59502 2.51053 6.4067 2.76476 7.15539C2.11726 7.65539 1.46945 8.15789 0.821325 8.66289C0.226154 7.47819 0.0446373 6.12836 0.3057 4.82852Z" fill="#F8BD00"/>
<path d="M6.11858 4.88867H11.6986C11.8895 5.9358 11.8378 7.01274 11.5476 8.0368C11.2807 8.9785 10.7621 9.82962 10.0476 10.4987C9.42046 10.0093 8.79046 9.52367 8.16327 9.0343C8.47422 8.82456 8.73961 8.5542 8.94356 8.23942C9.1475 7.92464 9.28579 7.57193 9.35014 7.20242H6.11858C6.11764 6.4318 6.11858 5.66023 6.11858 4.88867Z" fill="#587DBD"/>
<path d="M0.820312 8.66277C1.46844 8.16277 2.11625 7.66027 2.76375 7.15527C3.01426 7.89046 3.49069 8.52767 4.125 8.9759C4.52063 9.25552 4.97019 9.44965 5.445 9.5459C5.91287 9.63289 6.39276 9.63289 6.86063 9.5459C7.32712 9.46694 7.77195 9.2913 8.16656 9.03027C8.79375 9.51965 9.42375 10.0053 10.0509 10.4946C9.36459 11.1188 8.52789 11.5539 7.62281 11.7575C6.62382 11.9923 5.58274 11.9811 4.58906 11.7246C3.80316 11.5148 3.06907 11.1449 2.43281 10.6381C1.75937 10.1034 1.20933 9.42962 0.820312 8.66277Z" fill="#319F43"/>
</g>
<defs>
<clipPath id="clip0_629_24739">
<rect width="12" height="12" fill="white"/>
</clipPath>
</defs>
</svg>
