<svg width="24" height="24" viewBox="0 0 24 24" fill="none" xmlns="http://www.w3.org/2000/svg">
<path d="M6 8L6 16H14V8H6Z" fill="white"/>
<path d="M1.5 8.5V15.5L4 16L6.5 15.5V8.5L4 8L1.5 8.5Z" fill="#1E88E5"/>
<path d="M18.5 12V19C18.5 19.8285 17.8285 20.5 17 20.5H6.5L6 18L6.5 15.5H13.5V12L16 11.5L18.5 12Z" fill="#4CAF50"/>
<path d="M18.5 5V12H13.5V8.5H6.5L6 6L6.5 3.5H17C17.8285 3.5 18.5 4.1715 18.5 5Z" fill="#FBC02D"/>
<path d="M6.5 15.5V20.5H3C2.1715 20.5 1.5 19.8285 1.5 19V15.5H6.5Z" fill="#1565C0"/>
<path d="M6.5 3.5V8.5H1.5L6.5 3.5Z" fill="#E53935"/>
<path d="M19 12.0004L18.5 16.2254L13.5 12.0004L18.5 7.77539L19 12.0004Z" fill="#2E7D32"/>
<path d="M23 5.05482V18.9448C23 19.3648 22.51 19.5998 22.185 19.3348L18.5 16.2248V7.77482L22.185 4.66482C22.51 4.39982 23 4.63482 23 5.05482Z" fill="#4CAF50"/>
</svg>
