<svg width="24" height="24" viewBox="0 0 24 24" fill="none" xmlns="http://www.w3.org/2000/svg">
<path d="M12 0C5.37188 0 0 4.9875 0 11.1429C0 13.8 1.00313 16.2321 2.67188 18.1446C2.08594 20.8446 0.126563 23.25 0.103125 23.2768C0 23.4 -0.028125 23.5821 0.0328125 23.7429C0.09375 23.9036 0.225 24 0.375 24C3.48281 24 5.8125 22.2964 6.96563 21.2464C8.49844 21.9054 10.2 22.2857 12 22.2857C18.6281 22.2857 24 17.2982 24 11.1429C24 4.9875 18.6281 0 12 0ZM6.00937 14.5714H5.4375C5.23125 14.5714 5.0625 14.3786 5.0625 14.1429V13.2857C5.0625 13.05 5.23125 12.8571 5.4375 12.8571H6.01406C6.29531 12.8571 6.50156 12.6696 6.50156 12.5036C6.50156 12.4339 6.46406 12.3589 6.40313 12.3L5.37656 11.2929C4.97812 10.9071 4.75313 10.3554 4.75313 9.7875C4.75313 8.64643 5.64375 7.71964 6.74063 7.71964H7.3125C7.51875 7.71964 7.6875 7.9125 7.6875 8.14821V9.00536C7.6875 9.24107 7.51875 9.43393 7.3125 9.43393H6.73594C6.45469 9.43393 6.24844 9.62143 6.24844 9.7875C6.24844 9.85714 6.28594 9.93214 6.34687 9.99107L7.37344 10.9982C7.77188 11.3839 7.99688 11.9357 7.99688 12.5036C8.00156 13.6446 7.10625 14.5714 6.00937 14.5714ZM15 14.1429C15 14.3786 14.8313 14.5714 14.625 14.5714H13.875C13.6687 14.5714 13.5 14.3786 13.5 14.1429V10.4893L12.3375 13.4786C12.2016 13.7946 11.8031 13.7946 11.6672 13.4786L10.5 10.4893V14.1429C10.5 14.3786 10.3313 14.5714 10.125 14.5714H9.375C9.16875 14.5714 9 14.3786 9 14.1429V8.57143C9 8.1 9.3375 7.71429 9.75 7.71429H10.5C10.7859 7.71429 11.0437 7.89643 11.1703 8.18571L12 10.0821L12.8297 8.18571C12.9563 7.89643 13.2188 7.71429 13.5 7.71429H14.25C14.6625 7.71429 15 8.1 15 8.57143V14.1429ZM17.2641 14.5714H16.6875C16.4813 14.5714 16.3125 14.3786 16.3125 14.1429V13.2857C16.3125 13.05 16.4813 12.8571 16.6875 12.8571H17.2641C17.5453 12.8571 17.7516 12.6696 17.7516 12.5036C17.7516 12.4339 17.7141 12.3589 17.6531 12.3L16.6266 11.2929C16.2281 10.9071 16.0031 10.3554 16.0031 9.7875C16.0031 8.64643 16.8937 7.71964 17.9906 7.71964H18.5625C18.7687 7.71964 18.9375 7.9125 18.9375 8.14821V9.00536C18.9375 9.24107 18.7687 9.43393 18.5625 9.43393H17.9859C17.7047 9.43393 17.4984 9.62143 17.4984 9.7875C17.4984 9.85714 17.5359 9.93214 17.5969 9.99107L18.6234 10.9982C19.0219 11.3839 19.2469 11.9357 19.2469 12.5036C19.2516 13.6446 18.3609 14.5714 17.2641 14.5714Z" fill="#54D110"/>
</svg>
