<svg width="24" height="24" viewBox="0 0 24 24" fill="none" xmlns="http://www.w3.org/2000/svg">
<mask id="mask0_3381_177" style="mask-type:luminance" maskUnits="userSpaceOnUse" x="0" y="0" width="24" height="24">
<path d="M0 0H24V24H0V0Z" fill="white"/>
</mask>
<g mask="url(#mask0_3381_177)">
<path d="M8.79713 12.265V12.889C8.79713 12.997 8.73712 13.045 8.62912 13.045H6.14512C6.00112 13.045 5.95312 13.045 5.95312 12.853V9.00103C5.95312 8.84503 5.95313 8.79703 6.15713 8.79703H6.70913C6.85313 8.79703 6.90113 8.85703 6.90113 8.98903V12.061H8.66513C8.70003 12.0648 8.73264 12.0802 8.75769 12.1049C8.78273 12.1295 8.79874 12.1618 8.80313 12.1966C8.80783 12.2195 8.80574 12.2433 8.79713 12.265ZM10.3331 8.98903V12.853C10.3331 12.997 10.3331 13.045 10.1291 13.045C9.93712 13.057 9.74513 13.057 9.55313 13.045C9.52698 13.0491 9.50023 13.047 9.47506 13.0388C9.44989 13.0306 9.42702 13.0166 9.4083 12.9979C9.38959 12.9791 9.37556 12.9563 9.36736 12.9311C9.35916 12.9059 9.35702 12.8792 9.36113 12.853V8.98903C9.35477 8.95751 9.35697 8.92487 9.3675 8.89449C9.37803 8.86412 9.3965 8.83711 9.42099 8.81629C9.44549 8.79547 9.47512 8.78158 9.5068 8.77609C9.53847 8.77059 9.57105 8.77368 9.60113 8.78503H10.1651C10.1899 8.78646 10.2141 8.79299 10.2362 8.80423C10.2584 8.81546 10.2779 8.83115 10.2937 8.85031C10.3095 8.86946 10.3211 8.89168 10.3279 8.91555C10.3347 8.93942 10.3365 8.96444 10.3331 8.98903ZM14.6891 8.97703V12.853C14.6891 12.985 14.6891 13.033 14.4971 13.033H13.8851C13.857 13.034 13.8291 13.028 13.8039 13.0154C13.7788 13.0028 13.7572 12.9841 13.7411 12.961L12.8411 11.761L12.0011 10.621V10.537V12.865C12.0011 13.033 12.0011 13.069 11.7971 13.069H11.2451C11.2056 13.0753 11.1652 13.0672 11.1311 13.0463C11.097 13.0254 11.0715 12.9931 11.0591 12.955C11.051 12.9299 11.049 12.9031 11.0531 12.877V9.00103C11.0513 8.97693 11.0548 8.95273 11.0632 8.93008C11.0716 8.90743 11.0848 8.88686 11.1019 8.86977C11.119 8.85269 11.1395 8.83949 11.1622 8.83108C11.1848 8.82266 11.209 8.81924 11.2331 8.82103H11.8931C11.9152 8.82458 11.9363 8.83284 11.955 8.84527C11.9736 8.85769 11.9893 8.87398 12.0011 8.89303L13.3211 10.801L13.6691 11.269V11.329V9.00103C13.6691 8.84503 13.7291 8.78503 13.8851 8.78503H14.4251C14.6171 8.78503 14.6891 8.84503 14.6891 8.97703ZM18.1811 9.00103V9.60103C18.1811 9.73303 18.1811 9.79303 18.0011 9.79303H16.3811C16.2971 9.79303 16.2971 9.79303 16.2971 9.87703V10.381C16.2971 10.477 16.2971 10.477 16.3811 10.477H18.0011C18.1571 10.477 18.2051 10.537 18.2051 10.693V11.245C18.2092 11.2712 18.2071 11.2979 18.1989 11.3231C18.1907 11.3483 18.1767 11.3711 18.1579 11.3899C18.1392 11.4086 18.1164 11.4226 18.0912 11.4308C18.066 11.439 18.0393 11.4411 18.0131 11.437H16.3811C16.2971 11.437 16.2971 11.437 16.2971 11.533V12.001C16.2971 12.097 16.2971 12.097 16.3811 12.097H18.0011C18.1451 12.097 18.1931 12.097 18.1931 12.301V12.853C18.1931 12.997 18.1931 13.045 18.0011 13.045H15.5411C15.3251 13.045 15.3371 13.045 15.3371 12.853V9.00103C15.3371 8.85703 15.3971 8.79703 15.5411 8.79703H17.9411C18.1331 8.79703 18.1811 8.85703 18.1811 9.00103Z" fill="#54D110"/>
<path d="M19.2 0H4.8C3.52696 0 2.30606 0.505713 1.40589 1.40589C0.505713 2.30606 0 3.52696 0 4.8V19.2C0 20.473 0.505713 21.6939 1.40589 22.5941C2.30606 23.4943 3.52696 24 4.8 24H19.2C20.473 24 21.6939 23.4943 22.5941 22.5941C23.4943 21.6939 24 20.473 24 19.2V4.8C24 3.52696 23.4943 2.30606 22.5941 1.40589C21.6939 0.505713 20.473 0 19.2 0ZM20.52 13.2C20.215 13.8873 19.8107 14.5262 19.32 15.096C18.5352 15.9861 17.6583 16.7906 16.704 17.496C15.5992 18.364 14.4472 19.164 13.248 19.896C12.876 20.124 12.492 20.328 12.108 20.52C11.9405 20.6187 11.7504 20.6724 11.556 20.676C11.5127 20.6841 11.4682 20.6818 11.426 20.6692C11.3838 20.6566 11.3452 20.6341 11.3135 20.6036C11.2818 20.573 11.2579 20.5354 11.2437 20.4937C11.2295 20.452 11.2255 20.4075 11.232 20.364C11.2208 20.2002 11.2208 20.0358 11.232 19.872C11.3116 19.501 11.3558 19.1233 11.364 18.744C11.3672 18.6309 11.337 18.5195 11.2773 18.4234C11.2175 18.3274 11.1308 18.2511 11.028 18.204C10.8279 18.1057 10.6131 18.0408 10.392 18.012C9.23724 17.8454 8.11808 17.4885 7.08 16.956C6.10192 16.4562 5.23306 15.7668 4.524 14.928C3.79859 14.0823 3.29907 13.0668 3.072 11.976C3.072 11.724 3 11.472 2.976 11.208C2.952 10.944 2.976 10.716 2.976 10.464C3.01203 9.80052 3.15802 9.14764 3.408 8.532C3.73342 7.71005 4.20503 6.95384 4.8 6.3C5.6513 5.4091 6.67647 4.70251 7.812 4.224C8.52761 3.93737 9.27185 3.72817 10.032 3.6L10.944 3.48H12.972C14.347 3.59308 15.6854 3.98072 16.908 4.62C17.76 5.058 18.5352 5.6328 19.2 6.324C19.8975 7.05233 20.4189 7.93081 20.724 8.892C20.856 9.2796 20.9412 9.684 20.976 10.092V10.872C20.9908 11.6716 20.8353 12.4651 20.52 13.2Z" fill="#54D110"/>
<path d="M14.6891 8.97703V12.853C14.6891 12.985 14.6891 13.033 14.4971 13.033H13.8851C13.857 13.034 13.8291 13.028 13.8039 13.0154C13.7788 13.0028 13.7572 12.9841 13.7411 12.961L12.8411 11.761L12.0011 10.621V10.537V12.865C12.0011 13.033 12.0011 13.069 11.7971 13.069H11.2451C11.2056 13.0753 11.1652 13.0672 11.1311 13.0463C11.097 13.0254 11.0715 12.9931 11.0591 12.955C11.051 12.9299 11.049 12.9031 11.0531 12.877V9.00103C11.0513 8.97693 11.0548 8.95273 11.0632 8.93008C11.0716 8.90743 11.0848 8.88686 11.1019 8.86977C11.119 8.85269 11.1395 8.83949 11.1622 8.83108C11.1848 8.82266 11.209 8.81924 11.2331 8.82103H11.8931C11.9152 8.82458 11.9363 8.83284 11.955 8.84527C11.9736 8.85769 11.9893 8.87398 12.0011 8.89303L13.3211 10.801L13.6691 11.269V11.329V9.00103C13.6691 8.84503 13.7291 8.78503 13.8851 8.78503H14.4251C14.6171 8.78503 14.6891 8.84503 14.6891 8.97703ZM16.2971 9.84103V10.345C16.2971 10.441 16.2971 10.441 16.3811 10.441H18.0011C18.1571 10.441 18.2051 10.501 18.2051 10.657V11.209C18.2092 11.2352 18.2071 11.2619 18.1989 11.2871C18.1907 11.3123 18.1767 11.3351 18.1579 11.3539C18.1392 11.3726 18.1164 11.3866 18.0912 11.3948C18.066 11.403 18.0393 11.4051 18.0131 11.401H16.3811C16.2971 11.401 16.2971 11.401 16.2971 11.497V12.001C16.2971 12.097 16.2971 12.097 16.3811 12.097H18.0011C18.1451 12.097 18.1931 12.097 18.1931 12.301V12.853C18.1931 12.997 18.1931 13.045 18.0011 13.045H15.5411C15.3251 13.045 15.3371 13.045 15.3371 12.853V9.00103C15.3371 8.85703 15.3971 8.79703 15.5411 8.79703H17.9411C18.0851 8.79703 18.1331 8.85703 18.1331 9.00103V9.60103C18.1331 9.73303 18.1331 9.79303 17.9531 9.79303H16.3811C16.2971 9.75703 16.2971 9.75703 16.2971 9.84103ZM8.79713 12.265V12.889C8.79713 12.997 8.73712 13.045 8.62912 13.045H6.14512C6.00112 13.045 5.95312 13.045 5.95312 12.853V9.00103C5.95312 8.84503 5.95313 8.79703 6.15713 8.79703H6.70913C6.85313 8.79703 6.90113 8.85703 6.90113 8.98903V12.061H8.66513C8.70003 12.0648 8.73264 12.0802 8.75769 12.1049C8.78273 12.1295 8.79874 12.1618 8.80313 12.1966C8.80783 12.2195 8.80574 12.2433 8.79713 12.265ZM10.3331 8.98903V12.853C10.3331 12.997 10.3331 13.045 10.1291 13.045C9.93712 13.057 9.74513 13.057 9.55313 13.045C9.52698 13.0491 9.50023 13.047 9.47506 13.0388C9.44989 13.0306 9.42702 13.0166 9.4083 12.9979C9.38959 12.9791 9.37556 12.9563 9.36736 12.9311C9.35916 12.9059 9.35702 12.8792 9.36113 12.853V8.98903C9.35477 8.95751 9.35697 8.92487 9.3675 8.89449C9.37803 8.86412 9.3965 8.83711 9.42099 8.81629C9.44549 8.79547 9.47512 8.78158 9.5068 8.77609C9.53847 8.77059 9.57105 8.77368 9.60113 8.78503H10.1651C10.1899 8.78646 10.2141 8.79299 10.2362 8.80423C10.2584 8.81546 10.2779 8.83115 10.2937 8.85031C10.3095 8.86946 10.3211 8.89168 10.3279 8.91555C10.3347 8.93942 10.3365 8.96444 10.3331 8.98903Z" fill="#54D110"/>
</g>
</svg>
