<svg width="24" height="30" viewBox="0 0 24 30" fill="none" xmlns="http://www.w3.org/2000/svg">
<path d="M5.53047 26.0774C4.90562 26.3681 4.18235 25.9067 4.13778 25.189L3.86247 20.7556C3.81161 19.9366 4.66124 19.4123 5.33875 19.8445L9.4739 22.4824C10.1514 22.9146 10.1033 23.9503 9.3903 24.2819L5.53047 26.0774Z" fill="#0199FF"/>
<ellipse cx="11.9999" cy="13.2555" rx="11.9999" ry="12.6344" fill="url(#paint0_linear_3381_18241)"/>
<path d="M4.79482 16.4603L8.31979 10.5722C8.88041 9.63544 10.0812 9.4022 10.9225 10.0665L13.726 12.2805C13.8512 12.3793 14.0036 12.4326 14.1601 12.4321C14.3166 12.4316 14.4687 12.3774 14.5934 12.2778L18.3797 9.25227C18.885 8.84846 19.5449 9.48521 19.2066 10.0503L15.6816 15.9385C15.1209 16.8751 13.9201 17.1084 13.0789 16.4441L10.2752 14.2301C10.15 14.1313 9.99767 14.0781 9.8412 14.0786C9.68473 14.079 9.53267 14.1332 9.40803 14.2328L5.6215 17.2583C5.11619 17.662 4.45648 17.0254 4.79482 16.4603Z" fill="white"/>
<defs>
<linearGradient id="paint0_linear_3381_18241" x1="5.4545" y1="22.4441" x2="18.404" y2="1.19994" gradientUnits="userSpaceOnUse">
<stop stop-color="#0099FF"/>
<stop offset="0.61" stop-color="#A033FF"/>
<stop offset="0.93" stop-color="#FF5280"/>
<stop offset="1" stop-color="#FF7061"/>
</linearGradient>
</defs>
</svg>
