<svg width="24" height="24" viewBox="0 0 24 24" fill="none" xmlns="http://www.w3.org/2000/svg">
<path d="M15.0176 5.08594V9.78051L16.6775 10.8134C16.7374 10.8261 16.7994 10.8261 16.8594 10.8134L23.9963 6.05279C23.991 5.82175 23.9056 5.59952 23.7543 5.42345C23.603 5.24738 23.3951 5.1282 23.1654 5.08594H15.0176Z" fill="#0072C6"/>
<path d="M15.0148 11.5323L16.5283 12.5609C16.5991 12.6038 16.6805 12.6265 16.7635 12.6265C16.8465 12.6265 16.9279 12.6038 16.9987 12.5609C16.7388 12.716 23.9927 7.95117 23.9927 7.95117V16.5792C24.0116 16.754 23.9916 16.9308 23.9343 17.0972C23.8769 17.2636 23.7835 17.4157 23.6605 17.5426C23.5376 17.6696 23.3881 17.7684 23.2225 17.8322C23.0569 17.896 22.8792 17.9233 22.7018 17.912H15.014L15.0148 11.5323ZM7.17972 9.36803C6.92827 9.36692 6.68119 9.43309 6.46463 9.55954C6.24808 9.68598 6.07009 9.86799 5.94952 10.0863C5.62037 10.6652 5.46246 11.324 5.49383 11.9875C5.45963 12.6495 5.61776 13.3075 5.94952 13.8835C6.06952 14.0929 6.2431 14.2673 6.45283 14.3893C6.66256 14.5113 6.90105 14.5765 7.14433 14.5784C7.38761 14.5803 7.62711 14.5189 7.83877 14.4002C8.05044 14.2815 8.2268 14.1098 8.35013 13.9023C8.67893 13.3292 8.83383 12.6745 8.7963 12.0166C8.83383 11.3381 8.6841 10.6622 8.36313 10.0615C8.24812 9.85044 8.07719 9.6744 7.8687 9.55224C7.66021 9.43007 7.42202 9.36639 7.17972 9.36803Z" fill="#0072C6"/>
<path d="M0 2.70429V21.0703L14.1212 24V0L0 2.70429ZM9.44996 14.9923C9.18586 15.3608 8.83462 15.6598 8.4269 15.8631C8.01918 16.0664 7.56736 16.168 7.11086 16.1589C6.66587 16.1667 6.22555 16.0681 5.82735 15.8714C5.42915 15.6747 5.08485 15.3857 4.82374 15.0291C4.20454 14.1737 3.89476 13.1368 3.94442 12.0857C3.89187 10.9831 4.20724 9.89405 4.84194 8.98629C5.1096 8.61096 5.46638 8.30647 5.88091 8.09962C6.29544 7.89276 6.755 7.78987 7.21916 7.8C7.66088 7.79153 8.09797 7.89031 8.49216 8.08771C8.88635 8.2851 9.22562 8.57509 9.48029 8.93229C10.0933 9.80629 10.3978 10.8559 10.3466 11.9186C10.4008 13.0132 10.0854 14.0946 9.44996 14.9923Z" fill="#0072C6"/>
</svg>
