<svg width="24" height="26" viewBox="0 0 24 26" fill="none" xmlns="http://www.w3.org/2000/svg">
<path d="M18.375 0.365234H5.625C2.5184 0.365234 0 3.01676 0 6.28759V19.7116C0 22.9824 2.5184 25.634 5.625 25.634H18.375C21.4816 25.634 24 22.9824 24 19.7116V6.28759C24 3.01676 21.4816 0.365234 18.375 0.365234Z" fill="url(#paint0_radial_3381_20073)"/>
<path d="M18.375 0.365234H5.625C2.5184 0.365234 0 3.01676 0 6.28759V19.7116C0 22.9824 2.5184 25.634 5.625 25.634H18.375C21.4816 25.634 24 22.9824 24 19.7116V6.28759C24 3.01676 21.4816 0.365234 18.375 0.365234Z" fill="url(#paint1_radial_3381_20073)"/>
<path d="M12.0008 3.12891C9.45478 3.12891 9.13519 3.14065 8.13525 3.18852C7.13719 3.23669 6.45591 3.40301 5.85984 3.64711C5.24316 3.89921 4.72013 4.23649 4.19906 4.78529C3.67753 5.334 3.35719 5.88468 3.117 6.53367C2.8845 7.16144 2.72634 7.87903 2.68144 8.92936C2.63672 9.98226 2.625 10.3188 2.625 12.9996C2.625 15.6804 2.63625 16.0158 2.68163 17.0686C2.72756 18.1194 2.88553 18.8367 3.11719 19.4642C3.35681 20.1135 3.67716 20.6642 4.19841 21.2128C4.71938 21.7619 5.24241 22.1 5.85862 22.3521C6.45516 22.5962 7.13653 22.7625 8.13441 22.8107C9.13444 22.8585 9.45375 22.8703 11.9997 22.8703C14.5461 22.8703 14.8646 22.8585 15.8646 22.8107C16.8626 22.7625 17.5447 22.5962 18.1412 22.3521C18.7576 22.1 19.2799 21.7619 19.8007 21.2128C20.3223 20.6642 20.6425 20.1135 20.8828 19.4645C21.1133 18.8367 21.2715 18.1192 21.3184 17.0688C21.3633 16.016 21.375 15.6804 21.375 12.9996C21.375 10.3188 21.3633 9.98246 21.3184 8.92956C21.2715 7.87874 21.1133 7.16154 20.8828 6.53397C20.6425 5.88468 20.3223 5.334 19.8007 4.78529C19.2793 4.23629 18.7578 3.89901 18.1406 3.64721C17.543 3.40301 16.8613 3.23659 15.8632 3.18852C14.8632 3.14065 14.5448 3.12891 11.9979 3.12891H12.0008ZM11.1598 4.90769C11.4095 4.90729 11.688 4.90769 12.0008 4.90769C14.5041 4.90769 14.8007 4.91716 15.7892 4.96444C16.7032 5.00847 17.1994 5.16926 17.5298 5.30439C17.9674 5.48324 18.2793 5.69714 18.6072 6.04271C18.9353 6.38818 19.1384 6.71716 19.3088 7.17782C19.4371 7.52527 19.59 8.04762 19.6316 9.01C19.6765 10.0506 19.6863 10.3631 19.6863 12.9973C19.6863 15.6316 19.6765 15.9442 19.6316 16.9847C19.5898 17.947 19.4371 18.4694 19.3088 18.8169C19.1389 19.2776 18.9353 19.6056 18.6072 19.9509C18.2791 20.2963 17.9676 20.5101 17.5298 20.6891C17.1997 20.8248 16.7032 20.9852 15.7892 21.0292C14.8009 21.0765 14.5041 21.0868 12.0008 21.0868C9.49753 21.0868 9.20081 21.0765 8.21259 21.0292C7.29853 20.9848 6.80241 20.824 6.47166 20.6889C6.03422 20.5099 5.72166 20.2961 5.39353 19.9507C5.06541 19.6052 4.86234 19.277 4.692 18.8161C4.56366 18.4686 4.41075 17.9462 4.36913 16.9839C4.32422 15.9433 4.31522 15.6308 4.31522 12.9949C4.31522 10.3589 4.32422 10.0481 4.36913 9.00754C4.41094 8.04515 4.56366 7.5228 4.692 7.17486C4.86197 6.7142 5.06541 6.38522 5.39363 6.03975C5.72184 5.69427 6.03422 5.48038 6.47175 5.30113C6.80222 5.16541 7.29853 5.00501 8.21259 4.96079C9.07744 4.91963 9.41259 4.90729 11.1598 4.90522V4.90769ZM17.0052 6.5466C16.3841 6.5466 15.8802 7.07665 15.8802 7.73068C15.8802 8.3846 16.3841 8.91515 17.0052 8.91515C17.6263 8.91515 18.1302 8.3846 18.1302 7.73068C18.1302 7.07675 17.6263 6.54621 17.0052 6.54621V6.5466ZM12.0008 7.93056C9.34209 7.93056 7.18641 10.2002 7.18641 12.9996C7.18641 15.799 9.34209 18.0676 12.0008 18.0676C14.6597 18.0676 16.8146 15.799 16.8146 12.9996C16.8146 10.2003 14.6595 7.93056 12.0007 7.93056H12.0008ZM12.0008 9.70934C13.7267 9.70934 15.1259 11.1823 15.1259 12.9996C15.1259 14.8167 13.7267 16.2899 12.0008 16.2899C10.275 16.2899 8.87588 14.8167 8.87588 12.9996C8.87588 11.1823 10.2749 9.70934 12.0008 9.70934Z" fill="white"/>
<defs>
<radialGradient id="paint0_radial_3381_20073" cx="0" cy="0" r="1" gradientUnits="userSpaceOnUse" gradientTransform="translate(6.375 27.5801) rotate(-90) scale(25.0432 22.1227)">
<stop stop-color="#FFDD55"/>
<stop offset="0.1" stop-color="#FFDD55"/>
<stop offset="0.5" stop-color="#FF543E"/>
<stop offset="1" stop-color="#C837AB"/>
</radialGradient>
<radialGradient id="paint1_radial_3381_20073" cx="0" cy="0" r="1" gradientUnits="userSpaceOnUse" gradientTransform="translate(-4.02009 2.18547) rotate(79.2357) scale(11.1733 43.9099)">
<stop stop-color="#3771C8"/>
<stop offset="0.128" stop-color="#3771C8"/>
<stop offset="1" stop-color="#6600FF" stop-opacity="0"/>
</radialGradient>
</defs>
</svg>
