<svg width="24" height="26" viewBox="0 0 24 26" fill="none" xmlns="http://www.w3.org/2000/svg">
<path d="M3.42857 0.365234C1.5375 0.365234 0 1.98401 0 3.97505V22.0241C0 24.0152 1.5375 25.634 3.42857 25.634H20.5714C22.4625 25.634 24 24.0152 24 22.0241V3.97505C24 1.98401 22.4625 0.365234 20.5714 0.365234H3.42857ZM19.3446 5.10312L13.7839 11.7926L20.325 20.8961H15.2036L11.1964 15.3742L6.60536 20.8961H4.06071L10.0071 13.7385L3.73393 5.10312H8.98393L12.6107 10.1512L16.8 5.10312H19.3446ZM17.3196 19.2942L8.21786 6.62037H6.70179L15.9054 19.2942H17.3143H17.3196Z" fill="black"/>
</svg>
