<svg width="48" height="48" viewBox="0 0 48 48" fill="none" xmlns="http://www.w3.org/2000/svg">
<mask id="mask0_569_18440" style="mask-type:alpha" maskUnits="userSpaceOnUse" x="12" y="0" width="24" height="24">
<rect x="12" width="24" height="24" fill="#D9D9D9"/>
</mask>
<g mask="url(#mask0_569_18440)">
<path d="M17.85 17.1C18.7 16.45 19.65 15.9375 20.7 15.5625C21.75 15.1875 22.85 15 24 15C25.15 15 26.25 15.1875 27.3 15.5625C28.35 15.9375 29.3 16.45 30.15 17.1C30.7333 16.4167 31.1875 15.6417 31.5125 14.775C31.8375 13.9083 32 12.9833 32 12C32 9.78333 31.2208 7.89583 29.6625 6.3375C28.1042 4.77917 26.2167 4 24 4C21.7833 4 19.8958 4.77917 18.3375 6.3375C16.7792 7.89583 16 9.78333 16 12C16 12.9833 16.1625 13.9083 16.4875 14.775C16.8125 15.6417 17.2667 16.4167 17.85 17.1ZM24 13C23.0167 13 22.1875 12.6625 21.5125 11.9875C20.8375 11.3125 20.5 10.4833 20.5 9.5C20.5 8.51667 20.8375 7.6875 21.5125 7.0125C22.1875 6.3375 23.0167 6 24 6C24.9833 6 25.8125 6.3375 26.4875 7.0125C27.1625 7.6875 27.5 8.51667 27.5 9.5C27.5 10.4833 27.1625 11.3125 26.4875 11.9875C25.8125 12.6625 24.9833 13 24 13ZM24 22C22.6167 22 21.3167 21.7375 20.1 21.2125C18.8833 20.6875 17.825 19.975 16.925 19.075C16.025 18.175 15.3125 17.1167 14.7875 15.9C14.2625 14.6833 14 13.3833 14 12C14 10.6167 14.2625 9.31667 14.7875 8.1C15.3125 6.88333 16.025 5.825 16.925 4.925C17.825 4.025 18.8833 3.3125 20.1 2.7875C21.3167 2.2625 22.6167 2 24 2C25.3833 2 26.6833 2.2625 27.9 2.7875C29.1167 3.3125 30.175 4.025 31.075 4.925C31.975 5.825 32.6875 6.88333 33.2125 8.1C33.7375 9.31667 34 10.6167 34 12C34 13.3833 33.7375 14.6833 33.2125 15.9C32.6875 17.1167 31.975 18.175 31.075 19.075C30.175 19.975 29.1167 20.6875 27.9 21.2125C26.6833 21.7375 25.3833 22 24 22ZM24 20C24.8833 20 25.7167 19.8708 26.5 19.6125C27.2833 19.3542 28 18.9833 28.65 18.5C28 18.0167 27.2833 17.6458 26.5 17.3875C25.7167 17.1292 24.8833 17 24 17C23.1167 17 22.2833 17.1292 21.5 17.3875C20.7167 17.6458 20 18.0167 19.35 18.5C20 18.9833 20.7167 19.3542 21.5 19.6125C22.2833 19.8708 23.1167 20 24 20ZM24 11C24.4333 11 24.7917 10.8583 25.075 10.575C25.3583 10.2917 25.5 9.93333 25.5 9.5C25.5 9.06667 25.3583 8.70833 25.075 8.425C24.7917 8.14167 24.4333 8 24 8C23.5667 8 23.2083 8.14167 22.925 8.425C22.6417 8.70833 22.5 9.06667 22.5 9.5C22.5 9.93333 22.6417 10.2917 22.925 10.575C23.2083 10.8583 23.5667 11 24 11Z" fill="#1A1A1A"/>
</g>
<mask id="mask1_569_18440" style="mask-type:alpha" maskUnits="userSpaceOnUse" x="0" y="24" width="24" height="24">
<rect y="24" width="24" height="24" fill="#D9D9D9"/>
</mask>
<g mask="url(#mask1_569_18440)">
<path d="M5.85 41.1C6.7 40.45 7.65 39.9375 8.7 39.5625C9.75 39.1875 10.85 39 12 39C13.15 39 14.25 39.1875 15.3 39.5625C16.35 39.9375 17.3 40.45 18.15 41.1C18.7333 40.4167 19.1875 39.6417 19.5125 38.775C19.8375 37.9083 20 36.9833 20 36C20 33.7833 19.2208 31.8958 17.6625 30.3375C16.1042 28.7792 14.2167 28 12 28C9.78333 28 7.89583 28.7792 6.3375 30.3375C4.77917 31.8958 4 33.7833 4 36C4 36.9833 4.1625 37.9083 4.4875 38.775C4.8125 39.6417 5.26667 40.4167 5.85 41.1ZM12 37C11.0167 37 10.1875 36.6625 9.5125 35.9875C8.8375 35.3125 8.5 34.4833 8.5 33.5C8.5 32.5167 8.8375 31.6875 9.5125 31.0125C10.1875 30.3375 11.0167 30 12 30C12.9833 30 13.8125 30.3375 14.4875 31.0125C15.1625 31.6875 15.5 32.5167 15.5 33.5C15.5 34.4833 15.1625 35.3125 14.4875 35.9875C13.8125 36.6625 12.9833 37 12 37ZM12 46C10.6167 46 9.31667 45.7375 8.1 45.2125C6.88333 44.6875 5.825 43.975 4.925 43.075C4.025 42.175 3.3125 41.1167 2.7875 39.9C2.2625 38.6833 2 37.3833 2 36C2 34.6167 2.2625 33.3167 2.7875 32.1C3.3125 30.8833 4.025 29.825 4.925 28.925C5.825 28.025 6.88333 27.3125 8.1 26.7875C9.31667 26.2625 10.6167 26 12 26C13.3833 26 14.6833 26.2625 15.9 26.7875C17.1167 27.3125 18.175 28.025 19.075 28.925C19.975 29.825 20.6875 30.8833 21.2125 32.1C21.7375 33.3167 22 34.6167 22 36C22 37.3833 21.7375 38.6833 21.2125 39.9C20.6875 41.1167 19.975 42.175 19.075 43.075C18.175 43.975 17.1167 44.6875 15.9 45.2125C14.6833 45.7375 13.3833 46 12 46ZM12 44C12.8833 44 13.7167 43.8708 14.5 43.6125C15.2833 43.3542 16 42.9833 16.65 42.5C16 42.0167 15.2833 41.6458 14.5 41.3875C13.7167 41.1292 12.8833 41 12 41C11.1167 41 10.2833 41.1292 9.5 41.3875C8.71667 41.6458 8 42.0167 7.35 42.5C8 42.9833 8.71667 43.3542 9.5 43.6125C10.2833 43.8708 11.1167 44 12 44ZM12 35C12.4333 35 12.7917 34.8583 13.075 34.575C13.3583 34.2917 13.5 33.9333 13.5 33.5C13.5 33.0667 13.3583 32.7083 13.075 32.425C12.7917 32.1417 12.4333 32 12 32C11.5667 32 11.2083 32.1417 10.925 32.425C10.6417 32.7083 10.5 33.0667 10.5 33.5C10.5 33.9333 10.6417 34.2917 10.925 34.575C11.2083 34.8583 11.5667 35 12 35Z" fill="#1A1A1A"/>
</g>
<mask id="mask2_569_18440" style="mask-type:alpha" maskUnits="userSpaceOnUse" x="24" y="24" width="24" height="24">
<rect x="24" y="24" width="24" height="24" fill="#D9D9D9"/>
</mask>
<g mask="url(#mask2_569_18440)">
<path d="M29.85 41.1C30.7 40.45 31.65 39.9375 32.7 39.5625C33.75 39.1875 34.85 39 36 39C37.15 39 38.25 39.1875 39.3 39.5625C40.35 39.9375 41.3 40.45 42.15 41.1C42.7333 40.4167 43.1875 39.6417 43.5125 38.775C43.8375 37.9083 44 36.9833 44 36C44 33.7833 43.2208 31.8958 41.6625 30.3375C40.1042 28.7792 38.2167 28 36 28C33.7833 28 31.8958 28.7792 30.3375 30.3375C28.7792 31.8958 28 33.7833 28 36C28 36.9833 28.1625 37.9083 28.4875 38.775C28.8125 39.6417 29.2667 40.4167 29.85 41.1ZM36 37C35.0167 37 34.1875 36.6625 33.5125 35.9875C32.8375 35.3125 32.5 34.4833 32.5 33.5C32.5 32.5167 32.8375 31.6875 33.5125 31.0125C34.1875 30.3375 35.0167 30 36 30C36.9833 30 37.8125 30.3375 38.4875 31.0125C39.1625 31.6875 39.5 32.5167 39.5 33.5C39.5 34.4833 39.1625 35.3125 38.4875 35.9875C37.8125 36.6625 36.9833 37 36 37ZM36 46C34.6167 46 33.3167 45.7375 32.1 45.2125C30.8833 44.6875 29.825 43.975 28.925 43.075C28.025 42.175 27.3125 41.1167 26.7875 39.9C26.2625 38.6833 26 37.3833 26 36C26 34.6167 26.2625 33.3167 26.7875 32.1C27.3125 30.8833 28.025 29.825 28.925 28.925C29.825 28.025 30.8833 27.3125 32.1 26.7875C33.3167 26.2625 34.6167 26 36 26C37.3833 26 38.6833 26.2625 39.9 26.7875C41.1167 27.3125 42.175 28.025 43.075 28.925C43.975 29.825 44.6875 30.8833 45.2125 32.1C45.7375 33.3167 46 34.6167 46 36C46 37.3833 45.7375 38.6833 45.2125 39.9C44.6875 41.1167 43.975 42.175 43.075 43.075C42.175 43.975 41.1167 44.6875 39.9 45.2125C38.6833 45.7375 37.3833 46 36 46ZM36 44C36.8833 44 37.7167 43.8708 38.5 43.6125C39.2833 43.3542 40 42.9833 40.65 42.5C40 42.0167 39.2833 41.6458 38.5 41.3875C37.7167 41.1292 36.8833 41 36 41C35.1167 41 34.2833 41.1292 33.5 41.3875C32.7167 41.6458 32 42.0167 31.35 42.5C32 42.9833 32.7167 43.3542 33.5 43.6125C34.2833 43.8708 35.1167 44 36 44ZM36 35C36.4333 35 36.7917 34.8583 37.075 34.575C37.3583 34.2917 37.5 33.9333 37.5 33.5C37.5 33.0667 37.3583 32.7083 37.075 32.425C36.7917 32.1417 36.4333 32 36 32C35.5667 32 35.2083 32.1417 34.925 32.425C34.6417 32.7083 34.5 33.0667 34.5 33.5C34.5 33.9333 34.6417 34.2917 34.925 34.575C35.2083 34.8583 35.5667 35 36 35Z" fill="#1A1A1A"/>
</g>
</svg>
