<svg width="12" height="12" viewBox="0 0 12 12" fill="none" xmlns="http://www.w3.org/2000/svg">
<path d="M7.51074 2.54297V4.89048L8.34078 5.40696C8.37076 5.41333 8.40177 5.41333 8.43175 5.40696L12.0006 3.02644C11.9979 2.91091 11.9552 2.79979 11.8796 2.71174C11.8039 2.6237 11.6999 2.5641 11.5851 2.54297H7.51074Z" fill="#0072C6"/>
<path d="M7.50743 5.76145L8.26425 6.27578C8.29966 6.29723 8.34036 6.30858 8.38187 6.30858C8.42338 6.30858 8.46408 6.29723 8.49949 6.27578C8.36952 6.35336 11.9968 3.9707 11.9968 3.9707V8.28512C12.0063 8.37255 11.9963 8.46096 11.9676 8.54418C11.9389 8.6274 11.8922 8.7034 11.8307 8.76689C11.7692 8.83037 11.6945 8.8798 11.6117 8.91171C11.5289 8.94362 11.44 8.95724 11.3513 8.95162H7.507L7.50743 5.76145ZM3.58946 4.6792C3.46372 4.67865 3.34017 4.71174 3.23188 4.77496C3.12359 4.83819 3.03459 4.92921 2.9743 5.03838C2.80971 5.32784 2.73074 5.65728 2.74643 5.98904C2.72933 6.32012 2.8084 6.64912 2.9743 6.93714C3.0343 7.04184 3.1211 7.12908 3.22598 7.19008C3.33085 7.25108 3.45011 7.2837 3.57176 7.28466C3.69342 7.28561 3.81318 7.25487 3.91902 7.19553C4.02486 7.13618 4.11305 7.05032 4.17473 6.94656C4.33914 6.65999 4.4166 6.33261 4.39783 6.00362C4.4166 5.66432 4.34173 5.32636 4.18123 5.02595C4.12371 4.92043 4.03824 4.8324 3.93399 4.77131C3.82973 4.71022 3.71062 4.67838 3.58946 4.6792Z" fill="#0072C6"/>
<path d="M0 1.3513V10.5352L7.06136 12.0002V-0.000976562L0 1.3513ZM4.72548 7.4959C4.59341 7.68017 4.41777 7.82967 4.21389 7.93135C4.01001 8.03303 3.78408 8.0838 3.55581 8.07924C3.33328 8.08315 3.1131 8.03384 2.91398 7.93548C2.71486 7.83713 2.54269 7.69265 2.41213 7.51433C2.10249 7.08657 1.94759 6.56805 1.97241 6.04247C1.94614 5.49113 2.10384 4.94653 2.42122 4.49261C2.55507 4.30493 2.73348 4.15267 2.94077 4.04923C3.14805 3.94579 3.37785 3.89434 3.60996 3.89941C3.83084 3.89517 4.04941 3.94457 4.24652 4.04327C4.44364 4.14198 4.6133 4.28699 4.74064 4.4656C5.04718 4.90265 5.19945 5.42753 5.17385 5.95889C5.20096 6.50626 5.04322 7.047 4.72548 7.4959Z" fill="#0072C6"/>
</svg>
